<svg xmlns="http://www.w3.org/2000/svg" viewBox="0 0 960 480"><rect width="960" height="480" fill="#18202b"/><rect x="45" y="40" width="870" height="400" rx="11" fill="#202d3c"/><text x="82" y="91" fill="#e8f4ff" font-family="Arial" font-size="27" font-weight="bold">ServerWatch</text><g fill="#293b4e"><rect x="82" y="125" width="796" height="58" rx="7"/><rect x="82" y="200" width="796" height="58" rx="7"/><rect x="82" y="275" width="796" height="58" rx="7"/><rect x="82" y="350" width="796" height="58" rx="7"/></g><g fill="#6ce3c0"><circle cx="115" cy="154" r="10"/><circle cx="115" cy="229" r="10"/><circle cx="115" cy="304" r="10"/></g><circle cx="115" cy="379" r="10" fill="#e4c26d"/><g fill="#c7d4e8"><rect x="145" y="147" width="160" height="10" rx="5"/><rect x="145" y="222" width="135" height="10" rx="5"/><rect x="145" y="297" width="195" height="10" rx="5"/><rect x="145" y="372" width="120" height="10" rx="5"/></g></svg>
